<svg width="23" height="22" viewBox="0 0 23 22" fill="none" xmlns="http://www.w3.org/2000/svg">
<path fill-rule="evenodd" clip-rule="evenodd" d="M11.4998 2.75002C6.94349 2.75002 3.24984 6.44367 3.24984 11C3.24984 15.5564 6.94349 19.25 11.4998 19.25C16.0562 19.25 19.7498 15.5564 19.7498 11C19.7498 6.44367 16.0562 2.75002 11.4998 2.75002ZM1.4165 11C1.4165 5.43115 5.93097 0.916687 11.4998 0.916687C17.0687 0.916687 21.5832 5.43115 21.5832 11C21.5832 16.5689 17.0687 21.0834 11.4998 21.0834C5.93097 21.0834 1.4165 16.5689 1.4165 11Z" fill="#FF8181"/>
<path fill-rule="evenodd" clip-rule="evenodd" d="M9.23413 6.52515C9.53219 6.36564 9.89386 6.38312 10.1751 6.57064L15.6751 10.2373C15.9302 10.4073 16.0833 10.6935 16.0833 11C16.0833 11.3065 15.9302 11.5927 15.6751 11.7627L10.1751 15.4294C9.89386 15.6169 9.53219 15.6344 9.23413 15.4749C8.93607 15.3154 8.75 15.0048 8.75 14.6667V7.33336C8.75 6.99529 8.93607 6.68467 9.23413 6.52515ZM10.5833 9.04616V12.9539L13.5141 11L10.5833 9.04616Z" fill="#FF8181"/>
</svg>
