<svg width="23" height="22" viewBox="0 0 23 22" fill="none" xmlns="http://www.w3.org/2000/svg">
<path fill-rule="evenodd" clip-rule="evenodd" d="M10.5835 3.66665C7.03967 3.66665 4.16683 6.53949 4.16683 10.0833C4.16683 13.6271 7.03967 16.5 10.5835 16.5C14.1273 16.5 17.0002 13.6271 17.0002 10.0833C17.0002 6.53949 14.1273 3.66665 10.5835 3.66665ZM2.3335 10.0833C2.3335 5.52696 6.02715 1.83331 10.5835 1.83331C15.1398 1.83331 18.8335 5.52696 18.8335 10.0833C18.8335 14.6397 15.1398 18.3333 10.5835 18.3333C6.02715 18.3333 2.3335 14.6397 2.3335 10.0833Z" fill="#FF8181"/>
<path fill-rule="evenodd" clip-rule="evenodd" d="M15.1142 14.6143C15.4722 14.2563 16.0526 14.2563 16.4106 14.6143L20.398 18.6018C20.756 18.9598 20.756 19.5402 20.398 19.8982C20.0401 20.2562 19.4597 20.2562 19.1017 19.8982L15.1142 15.9107C14.7562 15.5527 14.7562 14.9723 15.1142 14.6143Z" fill="#FF8181"/>
</svg>
