<svg width="20" height="20" viewBox="0 0 11 10" fill="none" xmlns="http://www.w3.org/2000/svg">
<path d="M5.05157 0.991689C5.23498 0.620105 5.76485 0.620105 5.94827 0.991689L7.05745 3.23875C7.13022 3.38618 7.27081 3.48841 7.43349 3.51218L9.91469 3.87485C10.3247 3.93477 10.488 4.43869 10.1912 4.72777L8.39665 6.47571C8.27871 6.59058 8.22488 6.75615 8.25271 6.91841L8.67613 9.38719C8.74619 9.79567 8.31742 10.1072 7.9506 9.91425L5.73264 8.74784C5.58695 8.67123 5.41288 8.67123 5.26719 8.74784L3.04923 9.91425C2.68242 10.1072 2.25365 9.79567 2.3237 9.38719L2.74713 6.91841C2.77496 6.75615 2.72113 6.59058 2.60319 6.47571L0.808591 4.72777C0.511794 4.43869 0.675186 3.93477 1.08514 3.87485L3.56635 3.51218C3.72903 3.48841 3.86962 3.38618 3.94239 3.23875L5.05157 0.991689Z" fill="#FFC960"/>
</svg>
